<?xml version="1.0" encoding="UTF-8" standalone="no"?>
<svg
   xmlns:dc="http://purl.org/dc/elements/1.1/"
   xmlns:cc="http://creativecommons.org/ns#"
   xmlns:rdf="http://www.w3.org/1999/02/22-rdf-syntax-ns#"
   xmlns:svg="http://www.w3.org/2000/svg"
   xmlns="http://www.w3.org/2000/svg"
   viewBox="0 0 1831.9067 517.44531"
   height="517.44531"
   width="1831.9067"
   xml:space="preserve"
   id="svg2"
   version="1.1"><metadata
     id="metadata8"><rdf:RDF><cc:Work
         rdf:about=""><dc:format>image/svg+xml</dc:format><dc:type
           rdf:resource="http://purl.org/dc/dcmitype/StillImage" /></cc:Work></rdf:RDF></metadata><defs
     id="defs6"><clipPath
       id="clipPath18"
       clipPathUnits="userSpaceOnUse"><path
         id="path16"
         d="M 225.062,319.343 204.323,275.894 H 23.993 l 20.739,43.449 -20.75,43.451 h 180.33 z" /></clipPath><linearGradient
       id="linearGradient28"
       spreadMethod="pad"
       gradientTransform="matrix(0,86.900024,86.900024,0,124.5225,275.89355)"
       gradientUnits="userSpaceOnUse"
       y2="0"
       x2="1"
       y1="0"
       x1="0"><stop
         id="stop24"
         offset="0"
         style="stop-opacity:1;stop-color:#184fab" /><stop
         id="stop26"
         offset="1"
         style="stop-opacity:1;stop-color:#18335b" /></linearGradient><clipPath
       id="clipPath38"
       clipPathUnits="userSpaceOnUse"><path
         id="path36"
         d="m 412.896,319.343 -20.74,-43.449 h -180.33 l 20.74,43.449 -20.75,43.451 h 180.33 z" /></clipPath><linearGradient
       id="linearGradient48"
       spreadMethod="pad"
       gradientTransform="matrix(0,86.900024,86.900024,0,312.35584,275.89355)"
       gradientUnits="userSpaceOnUse"
       y2="0"
       x2="1"
       y1="0"
       x1="0"><stop
         id="stop44"
         offset="0"
         style="stop-opacity:1;stop-color:#184fab" /><stop
         id="stop46"
         offset="1"
         style="stop-opacity:1;stop-color:#18335b" /></linearGradient><clipPath
       id="clipPath58"
       clipPathUnits="userSpaceOnUse"><path
         id="path56"
         d="m 600.729,319.343 -20.74,-43.449 h -180.33 l 20.74,43.449 -20.75,43.451 h 180.33 z" /></clipPath><linearGradient
       id="linearGradient68"
       spreadMethod="pad"
       gradientTransform="matrix(0,86.900024,86.900024,0,500.18918,275.89355)"
       gradientUnits="userSpaceOnUse"
       y2="0"
       x2="1"
       y1="0"
       x1="0"><stop
         id="stop64"
         offset="0"
         style="stop-opacity:1;stop-color:#184fab" /><stop
         id="stop66"
         offset="1"
         style="stop-opacity:1;stop-color:#18335b" /></linearGradient><clipPath
       id="clipPath78"
       clipPathUnits="userSpaceOnUse"><path
         id="path76"
         d="m 788.563,319.343 -20.74,-43.449 h -180.33 l 20.739,43.449 -20.75,43.451 h 180.331 z" /></clipPath><linearGradient
       id="linearGradient88"
       spreadMethod="pad"
       gradientTransform="matrix(0,86.900024,86.900024,0,688.02252,275.89355)"
       gradientUnits="userSpaceOnUse"
       y2="0"
       x2="1"
       y1="0"
       x1="0"><stop
         id="stop84"
         offset="0"
         style="stop-opacity:1;stop-color:#184fab" /><stop
         id="stop86"
         offset="1"
         style="stop-opacity:1;stop-color:#18335b" /></linearGradient><clipPath
       id="clipPath98"
       clipPathUnits="userSpaceOnUse"><path
         id="path96"
         d="m 976.396,319.343 -20.74,-43.449 h -180.33 l 20.74,43.449 -20.75,43.451 h 180.33 z" /></clipPath><linearGradient
       id="linearGradient108"
       spreadMethod="pad"
       gradientTransform="matrix(0,86.900024,86.900024,0,875.85583,275.89355)"
       gradientUnits="userSpaceOnUse"
       y2="0"
       x2="1"
       y1="0"
       x1="0"><stop
         id="stop104"
         offset="0"
         style="stop-opacity:1;stop-color:#184fab" /><stop
         id="stop106"
         offset="1"
         style="stop-opacity:1;stop-color:#18335b" /></linearGradient><clipPath
       id="clipPath118"
       clipPathUnits="userSpaceOnUse"><path
         id="path116"
         d="m 1164.229,319.343 -20.74,-43.449 H 963.16 l 20.739,43.449 -20.75,43.451 h 180.33 z" /></clipPath><linearGradient
       id="linearGradient128"
       spreadMethod="pad"
       gradientTransform="matrix(0,86.900024,86.900024,0,1063.6892,275.89355)"
       gradientUnits="userSpaceOnUse"
       y2="0"
       x2="1"
       y1="0"
       x1="0"><stop
         id="stop124"
         offset="0"
         style="stop-opacity:1;stop-color:#184fab" /><stop
         id="stop126"
         offset="1"
         style="stop-opacity:1;stop-color:#18335b" /></linearGradient><clipPath
       id="clipPath138"
       clipPathUnits="userSpaceOnUse"><path
         id="path136"
         d="m 1352.063,319.343 -20.74,-43.449 h -180.33 l 20.74,43.449 -20.75,43.451 h 180.33 z" /></clipPath><linearGradient
       id="linearGradient148"
       spreadMethod="pad"
       gradientTransform="matrix(0,86.900024,86.900024,0,1251.5225,275.89355)"
       gradientUnits="userSpaceOnUse"
       y2="0"
       x2="1"
       y1="0"
       x1="0"><stop
         id="stop144"
         offset="0"
         style="stop-opacity:1;stop-color:#184fab" /><stop
         id="stop146"
         offset="1"
         style="stop-opacity:1;stop-color:#18335b" /></linearGradient><clipPath
       id="clipPath186"
       clipPathUnits="userSpaceOnUse"><path
         id="path184"
         d="M 225.062,144.553 204.323,19.318 H 23.993 l 20.739,125.235 -20.75,125.236 h 180.33 z" /></clipPath><linearGradient
       id="linearGradient194"
       spreadMethod="pad"
       gradientTransform="matrix(0,250.47055,250.47055,0,124.5225,19.318113)"
       gradientUnits="userSpaceOnUse"
       y2="0"
       x2="1"
       y1="0"
       x1="0"><stop
         id="stop190"
         offset="0"
         style="stop-opacity:1;stop-color:#184fab" /><stop
         id="stop192"
         offset="1"
         style="stop-opacity:1;stop-color:#18335b" /></linearGradient><clipPath
       id="clipPath204"
       clipPathUnits="userSpaceOnUse"><path
         id="path202"
         d="M 412.896,144.553 392.156,19.318 h -180.33 l 20.74,125.235 -20.75,125.236 h 180.33 z" /></clipPath><linearGradient
       id="linearGradient212"
       spreadMethod="pad"
       gradientTransform="matrix(0,250.47055,250.47055,0,312.35584,19.318113)"
       gradientUnits="userSpaceOnUse"
       y2="0"
       x2="1"
       y1="0"
       x1="0"><stop
         id="stop208"
         offset="0"
         style="stop-opacity:1;stop-color:#184fab" /><stop
         id="stop210"
         offset="1"
         style="stop-opacity:1;stop-color:#18335b" /></linearGradient><clipPath
       id="clipPath222"
       clipPathUnits="userSpaceOnUse"><path
         id="path220"
         d="M 600.729,144.553 579.989,19.318 h -180.33 l 20.74,125.235 -20.75,125.236 h 180.33 z" /></clipPath><linearGradient
       id="linearGradient230"
       spreadMethod="pad"
       gradientTransform="matrix(0,250.47055,250.47055,0,500.18918,19.318113)"
       gradientUnits="userSpaceOnUse"
       y2="0"
       x2="1"
       y1="0"
       x1="0"><stop
         id="stop226"
         offset="0"
         style="stop-opacity:1;stop-color:#184fab" /><stop
         id="stop228"
         offset="1"
         style="stop-opacity:1;stop-color:#18335b" /></linearGradient><clipPath
       id="clipPath240"
       clipPathUnits="userSpaceOnUse"><path
         id="path238"
         d="M 788.563,144.553 767.823,19.318 h -180.33 l 20.739,125.235 -20.75,125.236 h 180.331 z" /></clipPath><linearGradient
       id="linearGradient248"
       spreadMethod="pad"
       gradientTransform="matrix(0,250.47055,250.47055,0,688.02252,19.318113)"
       gradientUnits="userSpaceOnUse"
       y2="0"
       x2="1"
       y1="0"
       x1="0"><stop
         id="stop244"
         offset="0"
         style="stop-opacity:1;stop-color:#184fab" /><stop
         id="stop246"
         offset="1"
         style="stop-opacity:1;stop-color:#18335b" /></linearGradient><clipPath
       id="clipPath258"
       clipPathUnits="userSpaceOnUse"><path
         id="path256"
         d="M 976.396,144.553 955.656,19.318 h -180.33 l 20.74,125.235 -20.75,125.236 h 180.33 z" /></clipPath><linearGradient
       id="linearGradient266"
       spreadMethod="pad"
       gradientTransform="matrix(0,250.47055,250.47055,0,875.85583,19.318113)"
       gradientUnits="userSpaceOnUse"
       y2="0"
       x2="1"
       y1="0"
       x1="0"><stop
         id="stop262"
         offset="0"
         style="stop-opacity:1;stop-color:#184fab" /><stop
         id="stop264"
         offset="1"
         style="stop-opacity:1;stop-color:#18335b" /></linearGradient><clipPath
       id="clipPath276"
       clipPathUnits="userSpaceOnUse"><path
         id="path274"
         d="M 1164.229,144.553 1143.489,19.318 H 963.16 l 20.739,125.235 -20.75,125.236 h 180.33 z" /></clipPath><linearGradient
       id="linearGradient284"
       spreadMethod="pad"
       gradientTransform="matrix(0,250.47055,250.47055,0,1063.6892,19.318113)"
       gradientUnits="userSpaceOnUse"
       y2="0"
       x2="1"
       y1="0"
       x1="0"><stop
         id="stop280"
         offset="0"
         style="stop-opacity:1;stop-color:#184fab" /><stop
         id="stop282"
         offset="1"
         style="stop-opacity:1;stop-color:#18335b" /></linearGradient><clipPath
       id="clipPath294"
       clipPathUnits="userSpaceOnUse"><path
         id="path292"
         d="m 1352.063,144.553 -20.74,-125.235 h -180.33 l 20.74,125.235 -20.75,125.236 h 180.33 z" /></clipPath><linearGradient
       id="linearGradient302"
       spreadMethod="pad"
       gradientTransform="matrix(0,250.47055,250.47055,0,1251.5225,19.318113)"
       gradientUnits="userSpaceOnUse"
       y2="0"
       x2="1"
       y1="0"
       x1="0"><stop
         id="stop298"
         offset="0"
         style="stop-opacity:1;stop-color:#184fab" /><stop
         id="stop300"
         offset="1"
         style="stop-opacity:1;stop-color:#18335b" /></linearGradient><clipPath
       id="clipPath312"
       clipPathUnits="userSpaceOnUse"><path
         id="path310"
         d="M 0,388.084 H 1373.931 V 0 H 0 Z" /></clipPath><clipPath
       id="clipPath320"
       clipPathUnits="userSpaceOnUse"><path
         id="path318"
         d="M 33.2578,262.319 H 1342.7 V 28.8485 H 33.2578 Z" /></clipPath></defs><g
     transform="matrix(1.3333333,0,0,-1.3333333,0,517.44533)"
     id="g10"><g
       id="g12"><g
         clip-path="url(#clipPath18)"
         id="g14"><g
           id="g20"><g
             id="g22"><path
               id="path30"
               style="fill:url(#linearGradient28);stroke:none"
               d="M 225.062,319.343 204.323,275.894 H 23.993 l 20.739,43.449 -20.75,43.451 h 180.33 z" /></g></g></g></g><g
       id="g32"><g
         clip-path="url(#clipPath38)"
         id="g34"><g
           id="g40"><g
             id="g42"><path
               id="path50"
               style="fill:url(#linearGradient48);stroke:none"
               d="m 412.896,319.343 -20.74,-43.449 h -180.33 l 20.74,43.449 -20.75,43.451 h 180.33 z" /></g></g></g></g><g
       id="g52"><g
         clip-path="url(#clipPath58)"
         id="g54"><g
           id="g60"><g
             id="g62"><path
               id="path70"
               style="fill:url(#linearGradient68);stroke:none"
               d="m 600.729,319.343 -20.74,-43.449 h -180.33 l 20.74,43.449 -20.75,43.451 h 180.33 z" /></g></g></g></g><g
       id="g72"><g
         clip-path="url(#clipPath78)"
         id="g74"><g
           id="g80"><g
             id="g82"><path
               id="path90"
               style="fill:url(#linearGradient88);stroke:none"
               d="m 788.563,319.343 -20.74,-43.449 h -180.33 l 20.739,43.449 -20.75,43.451 h 180.331 z" /></g></g></g></g><g
       id="g92"><g
         clip-path="url(#clipPath98)"
         id="g94"><g
           id="g100"><g
             id="g102"><path
               id="path110"
               style="fill:url(#linearGradient108);stroke:none"
               d="m 976.396,319.343 -20.74,-43.449 h -180.33 l 20.74,43.449 -20.75,43.451 h 180.33 z" /></g></g></g></g><g
       id="g112"><g
         clip-path="url(#clipPath118)"
         id="g114"><g
           id="g120"><g
             id="g122"><path
               id="path130"
               style="fill:url(#linearGradient128);stroke:none"
               d="m 1164.229,319.343 -20.74,-43.449 H 963.16 l 20.739,43.449 -20.75,43.451 h 180.33 z" /></g></g></g></g><g
       id="g132"><g
         clip-path="url(#clipPath138)"
         id="g134"><g
           id="g140"><g
             id="g142"><path
               id="path150"
               style="fill:url(#linearGradient148);stroke:none"
               d="m 1352.063,319.343 -20.74,-43.449 h -180.33 l 20.74,43.449 -20.75,43.451 h 180.33 z" /></g></g></g></g><g
       transform="translate(219.5224,319.3433)"
       id="g152"><path
         id="path154"
         style="fill:none;stroke:#ffffff;stroke-width:2;stroke-linecap:butt;stroke-linejoin:miter;stroke-miterlimit:10;stroke-dasharray:none;stroke-opacity:1"
         d="M 0,0 -18.35,-38.45 H -187.6 l 17.32,36.3 1.03,2.15 -1.03,2.15 -17.33,36.3 h 169.25 z" /></g><g
       transform="translate(407.3525,319.3433)"
       id="g156"><path
         id="path158"
         style="fill:none;stroke:#ffffff;stroke-width:2;stroke-linecap:butt;stroke-linejoin:miter;stroke-miterlimit:10;stroke-dasharray:none;stroke-opacity:1"
         d="M 0,0 -18.35,-38.45 H -187.6 l 17.33,36.3 1.02,2.15 -1.02,2.15 -17.34,36.3 h 169.25 z" /></g><g
       transform="translate(595.1923,319.3433)"
       id="g160"><path
         id="path162"
         style="fill:none;stroke:#ffffff;stroke-width:2;stroke-linecap:butt;stroke-linejoin:miter;stroke-miterlimit:10;stroke-dasharray:none;stroke-opacity:1"
         d="m 0,0 -18.36,-38.45 h -169.25 l 17.33,36.3 1.03,2.15 -1.03,2.15 -17.33,36.3 h 169.24 z" /></g><g
       transform="translate(783.0229,319.3433)"
       id="g164"><path
         id="path166"
         style="fill:none;stroke:#ffffff;stroke-width:2;stroke-linecap:butt;stroke-linejoin:miter;stroke-miterlimit:10;stroke-dasharray:none;stroke-opacity:1"
         d="m 0,0 -18.351,-38.45 h -169.25 l 17.321,36.3 1.03,2.15 -1.03,2.15 -17.33,36.3 h 169.25 z" /></g><g
       transform="translate(970.853,319.3433)"
       id="g168"><path
         id="path170"
         style="fill:none;stroke:#ffffff;stroke-width:2;stroke-linecap:butt;stroke-linejoin:miter;stroke-miterlimit:10;stroke-dasharray:none;stroke-opacity:1"
         d="m 0,0 -18.351,-38.45 h -169.25 l 17.33,36.3 1.021,2.15 -1.021,2.15 -17.339,36.3 h 169.25 z" /></g><g
       transform="translate(1158.6929,319.3433)"
       id="g172"><path
         id="path174"
         style="fill:none;stroke:#ffffff;stroke-width:2;stroke-linecap:butt;stroke-linejoin:miter;stroke-miterlimit:10;stroke-dasharray:none;stroke-opacity:1"
         d="m 0,0 -18.36,-38.45 h -169.25 l 17.33,36.3 1.03,2.15 -1.03,2.15 -17.33,36.3 h 169.24 z" /></g><g
       transform="translate(1346.5229,319.3433)"
       id="g176"><path
         id="path178"
         style="fill:none;stroke:#ffffff;stroke-width:2;stroke-linecap:butt;stroke-linejoin:miter;stroke-miterlimit:10;stroke-dasharray:none;stroke-opacity:1"
         d="m 0,0 -18.351,-38.45 h -169.25 l 17.321,36.3 1.03,2.15 -1.03,2.15 -17.33,36.3 h 169.25 z" /></g><g
       id="g180"><g
         clip-path="url(#clipPath186)"
         id="g182"><g
           id="g188"><path
             id="path196"
             style="fill:url(#linearGradient194);stroke:none"
             d="M 225.062,144.553 204.323,19.318 H 23.993 l 20.739,125.235 -20.75,125.236 h 180.33 z" /></g></g></g><g
       id="g198"><g
         clip-path="url(#clipPath204)"
         id="g200"><g
           id="g206"><path
             id="path214"
             style="fill:url(#linearGradient212);stroke:none"
             d="M 412.896,144.553 392.156,19.318 h -180.33 l 20.74,125.235 -20.75,125.236 h 180.33 z" /></g></g></g><g
       id="g216"><g
         clip-path="url(#clipPath222)"
         id="g218"><g
           id="g224"><path
             id="path232"
             style="fill:url(#linearGradient230);stroke:none"
             d="M 600.729,144.553 579.989,19.318 h -180.33 l 20.74,125.235 -20.75,125.236 h 180.33 z" /></g></g></g><g
       id="g234"><g
         clip-path="url(#clipPath240)"
         id="g236"><g
           id="g242"><path
             id="path250"
             style="fill:url(#linearGradient248);stroke:none"
             d="M 788.563,144.553 767.823,19.318 h -180.33 l 20.739,125.235 -20.75,125.236 h 180.331 z" /></g></g></g><g
       id="g252"><g
         clip-path="url(#clipPath258)"
         id="g254"><g
           id="g260"><path
             id="path268"
             style="fill:url(#linearGradient266);stroke:none"
             d="M 976.396,144.553 955.656,19.318 h -180.33 l 20.74,125.235 -20.75,125.236 h 180.33 z" /></g></g></g><g
       id="g270"><g
         clip-path="url(#clipPath276)"
         id="g272"><g
           id="g278"><path
             id="path286"
             style="fill:url(#linearGradient284);stroke:none"
             d="M 1164.229,144.553 1143.489,19.318 H 963.16 l 20.739,125.235 -20.75,125.236 h 180.33 z" /></g></g></g><g
       id="g288"><g
         clip-path="url(#clipPath294)"
         id="g290"><g
           id="g296"><path
             id="path304"
             style="fill:url(#linearGradient302);stroke:none"
             d="m 1352.063,144.553 -20.74,-125.235 h -180.33 l 20.74,125.235 -20.75,125.236 h 180.33 z" /></g></g></g><g
       id="g306"><g
         clip-path="url(#clipPath312)"
         id="g308"><g
           id="g314"><g
             id="g316" /><g
             id="g352"><g
               style="opacity:0.369995"
               id="g350"
               clip-path="url(#clipPath320)"><g
                 id="g324"
                 transform="translate(215.1977,145.5884)"><path
                   id="path322"
                   style="fill:none;stroke:#ffffff;stroke-width:1;stroke-linecap:butt;stroke-linejoin:miter;stroke-miterlimit:10;stroke-dasharray:none;stroke-opacity:1"
                   d="m 0,0 -19.25,-116.24 h -162.09 l 19.01,114.77 0.24,1.47 -0.24,1.47 -19.02,114.76 h 162.09 z" /></g><g
                 id="g328"
                 transform="translate(403.0273,145.5884)"><path
                   id="path326"
                   style="fill:none;stroke:#ffffff;stroke-width:1;stroke-linecap:butt;stroke-linejoin:miter;stroke-miterlimit:10;stroke-dasharray:none;stroke-opacity:1"
                   d="m 0,0 -19.25,-116.24 h -162.08 l 19,114.77 0.25,1.47 -0.25,1.47 -19.01,114.76 h 162.08 z" /></g><g
                 id="g332"
                 transform="translate(590.8574,145.5884)"><path
                   id="path330"
                   style="fill:none;stroke:#ffffff;stroke-width:1;stroke-linecap:butt;stroke-linejoin:miter;stroke-miterlimit:10;stroke-dasharray:none;stroke-opacity:1"
                   d="m 0,0 -19.25,-116.24 h -162.08 l 19.01,114.77 0.24,1.47 -0.24,1.47 -19.02,114.76 h 162.09 z" /></g><g
                 id="g336"
                 transform="translate(778.6977,145.5884)"><path
                   id="path334"
                   style="fill:none;stroke:#ffffff;stroke-width:1;stroke-linecap:butt;stroke-linejoin:miter;stroke-miterlimit:10;stroke-dasharray:none;stroke-opacity:1"
                   d="m 0,0 -19.25,-116.24 h -162.09 l 19.01,114.77 0.24,1.47 -0.24,1.47 -19.02,114.76 h 162.09 z" /></g><g
                 id="g340"
                 transform="translate(966.5278,145.5884)"><path
                   id="path338"
                   style="fill:none;stroke:#ffffff;stroke-width:1;stroke-linecap:butt;stroke-linejoin:miter;stroke-miterlimit:10;stroke-dasharray:none;stroke-opacity:1"
                   d="m 0,0 -19.25,-116.24 h -162.08 l 19,114.77 0.25,1.47 -0.25,1.47 -19.01,114.76 h 162.079 z" /></g><g
                 id="g344"
                 transform="translate(1154.3579,145.5884)"><path
                   id="path342"
                   style="fill:none;stroke:#ffffff;stroke-width:1;stroke-linecap:butt;stroke-linejoin:miter;stroke-miterlimit:10;stroke-dasharray:none;stroke-opacity:1"
                   d="m 0,0 -19.25,-116.24 h -162.08 l 19.01,114.77 0.24,1.47 -0.24,1.47 -19.021,114.76 H -19.25 Z" /></g><g
                 id="g348"
                 transform="translate(1342.1978,145.5884)"><path
                   id="path346"
                   style="fill:none;stroke:#ffffff;stroke-width:1;stroke-linecap:butt;stroke-linejoin:miter;stroke-miterlimit:10;stroke-dasharray:none;stroke-opacity:1"
                   d="m 0,0 -19.25,-116.24 h -162.09 l 19.01,114.77 0.24,1.47 -0.24,1.47 -19.021,114.76 H -19.26 Z" /></g></g></g></g></g></g><text
       id="text356"
       style="font-variant:normal;font-weight:normal;font-stretch:normal;font-size:18px;font-family:Impact;-inkscape-font-specification:Impact;writing-mode:lr-tb;fill:#ffffff;fill-opacity:1;fill-rule:nonzero;stroke:none"
       transform="matrix(1,0,0,-1,90.3433,312.147)"><tspan
         id="tspan354"
         y="0"
         x="0 10.098 21.6 32.543999 39.528 51.075001 58.058998 69.614998 164.214 175.716 184.995 196.623 208.269 215.25301 226.755 236.034 250.74001 260.01901 271.56601 281.664 385.12799 396.88199 406.17001 417.276 424.26001 435.978 532.36798 539.35199 554.05798 564.89398 573.534 582.81299 597.51898 606.79797 618.34497 627.72119 637.66803 647.76599 654.75 666.37799 733.53601 744.75 754.03802 765.53101 772.51501 781.479 788.46301 800.23499 810.18359 820.28162 827.26562 838.89362 944.802 956.30402 965.58301 974.22302 983.50201 994.44598 1005.552 1124.514 1136.016 1145.295 1156.401 1167.2371 1178.865 1190.412 1201.5179">TRAININGREQUIREMENTSDESIGNIMPLEMENTATIONVERIFICATIONRELEASERESPONSE</tspan></text>
<text
       id="text416"
       style="font-variant:normal;font-weight:bold;font-stretch:semi-condensed;font-size:18px;font-family:'Arial Narrow';-inkscape-font-specification:ArialNarrow-Bold;writing-mode:lr-tb;fill:#ffffff;fill-opacity:1;fill-rule:nonzero;stroke:none"
       transform="matrix(1,0,0,-1,82.1173,149.157)"><tspan
         id="tspan358"
         y="0"
         x="0 10.656 19.674 25.416 33.624001 37.728001 47.574001 55.782001 63.990002 73.008003 78.75 82.853996 87.767998 95.975998">Core Security </tspan><tspan
         id="tspan360"
         y="21.6"
         x="19.278 27.487801 33.229801 41.437801 45.541801 54.559799 58.663799 67.681801">Training</tspan><tspan
         id="tspan362"
         y="-64.547997"
         x="169.146 178.992 187.2 192.114 200.32201 209.34 213.444 217.548 225.756 234.774 238.87801 248.724 256.93201 265.14001 274.15799 279.89999 284.004 288.918 297.12601">Establish Security </tspan><tspan
         id="tspan364"
         y="-42.948002"
         x="169.146 179.802 188.00999 197.028 206.04601 210.14999 215.892 224.10001 237.222 245.42999 254.448 259.362">Requirements</tspan><tspan
         id="tspan366"
         y="0.252"
         x="169.146 179.802 185.54401 193.752 201.96001 206.87399 215.082 219.186 230.67 239.688 247.896 252 256.104 261.01801 269.22601">Create Quality </tspan><tspan
         id="tspan368"
         y="21.851999"
         x="169.146 180.63 188.838 193.752 201.96001 210.168 214.272 218.37601 222.48 233.136 242.15401 251.172 255.276 265.93201 274.14001 279.88199">Gates / Bug Bars</tspan><tspan
         id="tspan370"
         y="65.052002"
         x="169.146 178.992 187.2 195.408 204.42599 210.168 214.272 219.186 227.394 231.498 242.15401 246.258 256.104 261.84601 265.95001 274.15799 282.366 290.57401 298.78201">Security &amp; Privacy </tspan><tspan
         id="tspan372"
         y="86.652"
         x="169.146 179.802 183.90601 192.114 200.32201 203.886 214.54201 222.75 230.95799 239.166 247.37399 255.582 268.70401 276.91199 285.92999">Risk Assessment</tspan><tspan
         id="tspan374"
         y="-0.34200001"
         x="1114.74 1124.5861 1132.7939 1141.002 1149.21 1158.228 1163.142 1171.35 1175.454 1179.558 1188.576 1196.7841 1200.8879 1209.906 1218.114 1227.132 1232.046">Execute Incident </tspan><tspan
         id="tspan376"
         y="21.257999"
         x="1114.74 1125.396 1133.604 1141.812 1150.83 1159.848 1168.866 1177.074 1185.282 1189.386 1199.2321 1203.3361 1211.5439">Response Plan</tspan><tspan
         id="tspan378"
         y="-64.547997"
         x="362.39401 372.23999 380.448 385.362 393.57001 402.58801 406.69199 410.79599 419.004 428.022 432.12601 442.78201 450.98999 459.198 463.302 472.32001 481.33801">Establish Design </tspan><tspan
         id="tspan380"
         y="-42.948002"
         x="362.39401 373.04999 381.258 390.276 399.29401 403.39801 409.14001 417.34799 430.47 438.67801 447.69601 452.60999">Requirements</tspan><tspan
         id="tspan382"
         y="0.252"
         x="362.39401 373.04999 382.06799 390.276 394.38 402.58801 409.96799 418.17599 421.73999 432.396 437.31 442.224 450.43201 458.64001 466.84799">Analyze Attack </tspan><tspan
         id="tspan384"
         y="21.851999"
         x="362.39401 372.23999 381.258 387 391.914 400.12201 408.32999">Surface</tspan><tspan
         id="tspan386"
         y="65.052002"
         x="362.39401 371.41199 380.42999 386.172 394.38 402.58801 407.50201 411.60599 423.89999 432.918 441.936 450.14401 454.24799 458.35199 467.37">Threat Modeling</tspan><tspan
         id="tspan388"
         y="-64.547997"
         x="550.224 560.88 569.08801 577.29602 580.85999 591.51599 600.534 609.552 615.29401 624.31201 632.52002 640.72803 649.74597">Use Approved </tspan><tspan
         id="tspan390"
         y="-42.948002"
         x="550.224 558.16022 567.17822 576.19623 580.30017">Tools</tspan><tspan
         id="tspan392"
         y="0.252"
         x="550.224 560.88 569.08801 578.10602 583.84802 592.05603 600.26398 608.47198 613.38599 621.59399 625.698 636.354 645.37201 653.58002 661.78802 666.70203 674.90997">Deprecate Unsafe </tspan><tspan
         id="tspan394"
         y="21.851999"
         x="550.224 559.242 568.26001 577.27802 585.48602 590.40002 594.50403 603.52197 612.53998">Functions</tspan><tspan
         id="tspan396"
         y="65.052002"
         x="550.224 560.07001 564.98401 573.19202 578.10602 582.21002 590.41803 593.98199 604.638 613.65601 621.86401 625.96802 634.17603 642.38397 646.48798">Static Analysis</tspan><tspan
         id="tspan398"
         y="-43.001999"
         x="738.05402 748.71002 756.91803 765.93597 774.14398 787.26599 791.37 799.578 803.14203 813.79797 822.81598 831.02399 835.12799 843.336 851.54401 855.64801">Dynamic Analysis</tspan><tspan
         id="tspan400"
         y="0.198"
         x="738.05402 747.07202 756.09003 763.46997 770.84998 774.95398 782.89563 791.10358 799.31158 804.22559 808.32959 817.3476">Fuzz Testing</tspan><tspan
         id="tspan402"
         y="43.397999"
         x="738.05402 748.71002 753.62402 758.53802 766.74597 774.95398 783.16199 787.26599 797.112 806.13 811.87201 816.78601 824.99402 833.20203 841.40997">Attack Surface </tspan><tspan
         id="tspan404"
         y="64.998001"
         x="738.05402 748.71002 756.91803 765.12598 769.22998 777.43799">Review</tspan><tspan
         id="tspan406"
         y="-64.547997"
         x="931.39203 935.49597 944.51398 952.72198 956.82599 965.84399 974.052 983.07001">Incident</tspan><tspan
         id="tspan408"
         y="-42.948002"
         x="931.39203 942.04797 950.25598 958.46399 967.48199 976.5 985.51801 993.72601 1001.934 1006.038 1015.884 1019.988 1028.196">Response Plan</tspan><tspan
         id="tspan410"
         y="0.252"
         x="931.39203 940.40997 944.51398 953.53198 961.73999 965.84399 969.948 979.79401 988.00201 996.21002 1005.228 1010.97 1015.074 1019.988 1028.196">Final Security </tspan><tspan
         id="tspan412"
         y="21.851999"
         x="931.39203 942.04797 950.25598 958.46399 962.56799 970.776">Review</tspan><tspan
         id="tspan414"
         y="65.052002"
         x="931.39203 942.04797 950.25598 954.35999 962.56799 970.776 978.98401 987.19202 990.75598 1001.412 1007.154 1015.362 1024.38 1028.484 1036.692">Release Archive</tspan></text>
</g></svg>